<?xml version="1.0" encoding="utf-8"?><svg fill="none" viewBox="0 0 1080 1080" xmlns="http://www.w3.org/2000/svg"><defs><clipPath id="cp-1080-1080"><rect height="1080" width="1080" y="0" x="0" /></clipPath><g id="comp_0"><g transform="matrix(0.69,0,0,0.985,541.39,543.656)" visibility="hidden" id="Shape Layer 6"><animate repeatCount="indefinite" begin="0.333s" calcMode="discrete" fill="freeze" dur="0.2s" values="visible; hidden" keyTimes="0; 1" attributeName="visibility" /><g id="Ellipse 1" transform="matrix(1,0,0,1,-3,305.5)"><path fill="#d57100" fill-opacity="1" d="M-1.928,45.707C72.861,45.707,165.072,39.859,165.072,47.125C165.072,58.036,110.406,98.247,-1.478,97.475C-93.583,96.839,-161,65.627,-161,47.125C-161,41.627,-88.488,45.707,-1.928,45.707Z" /></g></g><g transform="matrix(0.69,0,0,0.985,541.39,543.656)" visibility="hidden" id="Shape Layer 7"><animate repeatCount="indefinite" begin="1.233s" calcMode="discrete" fill="freeze" dur="0.2s" values="visible; hidden" keyTimes="0; 1" attributeName="visibility" /><g id="Ellipse 1" transform="matrix(1,0,0,1,-3,305.5)"><path fill="#d57100" fill-opacity="1" d="M-1.928,45.707C72.861,45.707,165.072,39.859,165.072,47.125C165.072,58.036,110.406,98.247,-1.478,97.475C-93.583,96.839,-161,65.627,-161,47.125C-161,41.627,-88.488,45.707,-1.928,45.707Z" /></g></g><g transform="matrix(1,0,0,1,540,540)" id="Shape Layer 5"><g id="Shape 1"><path stroke-linejoin="miter" stroke-linecap="round" stroke-width="16" stroke-opacity="1" stroke="#023047" fill="#fb8500" fill-opacity="1" d="M-118,343L-118,385" /></g><g id="Shape 2"><path stroke-linejoin="miter" stroke-linecap="round" stroke-width="16" stroke-opacity="1" stroke="#023047" fill="#fb8500" fill-opacity="1" d="M-156,349.5L-156,420.5" /></g><g id="Shape 3"><path stroke-linejoin="miter" stroke-linecap="round" stroke-width="16" stroke-opacity="1" stroke="#023047" fill="#fb8500" fill-opacity="1" d="M120.5,336L120.5,384" /></g><g id="Shape 4"><path stroke-linejoin="miter" stroke-linecap="round" stroke-width="16" stroke-opacity="1" stroke="#023047" fill="#fb8500" fill-opacity="1" d="M159.5,348.5L159.5,423" /></g></g><g transform="matrix(1.03,0,0,1.47,542.41,418.415)" id="Shape Layer 2"><g id="Ellipse 1" transform="matrix(1,0,0,1,-3,305.5)"><ellipse ry="33.5" rx="223" cy="0" cx="0" fill="#df9f00" fill-opacity="1" /></g></g><g transform="matrix(1,0,0,1,540,540)" id="Shape Layer 3"><g id="Shape 1"><path fill="#df9f00" fill-opacity="1" d="M-230.5,302.25L-230,328.75L229,327.75L229.25,302.25L-230.5,302.25Z" /></g></g><g transform="matrix(1.03,0,0,1.47,542.41,395.415)" id="Shape Layer 1"><g id="Ellipse 1" transform="matrix(1,0,0,1,-3,305.5)"><ellipse ry="33.5" rx="223" cy="0" cx="0" fill="#ffb703" fill-opacity="1" /></g></g><g transform="matrix(0.69,0,0,0.985,541.39,543.656)" id="Shape Layer 4"><g id="Ellipse 1" transform="matrix(1,0,0,1,-3,305.5)"><path fill="#ffffff" fill-opacity="1" d="M-0.159,-27.915C74.63,-27.915,159.583,-24.385,214.777,-17.469C250.475,-12.996,273.724,-7.107,273.724,0.159C273.724,18.661,123,29.946,-0.159,29.946C-123.319,29.946,-272.275,18.661,-272.275,0.159C-272.275,-5.339,-259.121,-10.049,-237.398,-13.953C-186.022,-23.187,-86.719,-27.915,-0.159,-27.915Z" /></g></g><g id="NULL body"><g transform="translate(517,464)"><animateTransform repeatCount="indefinite" type="translate" attributeName="transform" dur="1.8s" begin="0s" calcMode="spline" values="517 464; 517 856; 517 464; 517 856; 517 464" keyTimes="0; 0.222; 0.5; 0.722; 1" keySplines="0.789 0.029 0.585 1; 0.478 0 0.03 1; 0.83 0 0.481 0.967; 0.478 0.038 0.03 0.948" fill="freeze" /><g transform="scale(1,1) translate(-50,-50)"><g transform="matrix(-0.999,0.052,0.052,0.999,27.518,100.901)" id="l leg"><g id="Shape 1"><path stroke-linejoin="miter" stroke-linecap="round" stroke-width="27" stroke-opacity="1" stroke="#219ebc" d="M38.75,-94C38.75,-94,73,-78.75,103,-61C122.819,-49.274,149.25,-26.687,150.5,-26.625C151.375,-26.25,162.5,-45.5,162.5,-45.5" /></g></g></g></g></g><g transform="matrix(0.69,0,0,0.985,541.39,543.656)" id="Shape Layer 8"><g id="Ellipse 1" transform="matrix(1,0,0,1,-3,305.5)"><path fill="#ffffff" fill-opacity="1" d="M-5.359,118.043C130.696,118.811,272,69.053,264.997,10.314C265.328,21.114,123.015,32.721,-0.144,32.721C-123.304,32.721,-262.777,23.281,-262.644,9.603C-264.231,37.573,-177.274,117.073,-5.359,118.043Z" /></g></g><g id="NULL body"><g transform="translate(517,464)"><animateTransform repeatCount="indefinite" type="translate" attributeName="transform" dur="1.8s" begin="0s" calcMode="spline" values="517 464; 517 856; 517 464; 517 856; 517 464" keyTimes="0; 0.222; 0.5; 0.722; 1" keySplines="0.789 0.029 0.585 1; 0.478 0 0.03 1; 0.83 0 0.481 0.967; 0.478 0.038 0.03 0.948" fill="freeze" /><g transform="scale(1,1) translate(-50,-50)"><g transform="matrix(1,0.017,-0.017,1,73.213,124.485)" id="l leg 2"><g id="Shape 1"><path stroke-linejoin="miter" stroke-linecap="round" stroke-width="27" stroke-opacity="1" stroke="#219ebc" d="M38.75,-94C38.75,-94,73,-78.75,103,-61C122.819,-49.274,149.25,-26.687,150.5,-26.625C151.375,-26.25,162.5,-45.5,162.5,-45.5" /></g></g></g></g></g><g transform="matrix(0.69,0,0,0.985,541.39,543.656)" id="Shape Layer 9"><g id="Ellipse 1" transform="matrix(1,0,0,1,-3,305.5)"><path fill="#ffffff" fill-opacity="1" d="M-5.359,118.043C130.696,118.811,272,69.053,264.997,10.314C265.328,21.114,123.015,32.721,-0.144,32.721C-123.304,32.721,-262.777,23.281,-262.644,9.603C-264.231,37.573,-177.274,117.073,-5.359,118.043Z" /></g></g><g id="NULL body"><g transform="translate(517,464)"><animateTransform repeatCount="indefinite" type="translate" attributeName="transform" dur="1.8s" begin="0s" calcMode="spline" values="517 464; 517 856; 517 464; 517 856; 517 464" keyTimes="0; 0.222; 0.5; 0.722; 1" keySplines="0.789 0.029 0.585 1; 0.478 0 0.03 1; 0.83 0 0.481 0.967; 0.478 0.038 0.03 0.948" fill="freeze" /><g transform="scale(1,1) translate(-50,-50)"><g transform="matrix(1,0,0,1,73,126)" id="body"><g id="Ellipse 1" transform="matrix(1,0,0,1,1,-253)"><path fill="#219ebc" fill-opacity="1" d="M0,-179C98.859,-179,179,-98.859,179,0C179,98.859,98.859,179,0,179C-98.859,179,-179,98.859,-179,0C-179,-98.859,-98.859,-179,0,-179Z" /></g></g></g></g></g><g opacity="0" id="NULL body"><g transform="translate(517,464)"><animateTransform repeatCount="indefinite" type="translate" attributeName="transform" dur="1.8s" begin="0s" calcMode="spline" values="517 464; 517 856; 517 464; 517 856; 517 464" keyTimes="0; 0.222; 0.5; 0.722; 1" keySplines="0.789 0.029 0.585 1; 0.478 0 0.03 1; 0.83 0 0.481 0.967; 0.478 0.038 0.03 0.948" fill="freeze" /><g transform="scale(1,1) translate(-50,-50)" /></g></g><g id="NULL body"><g transform="translate(517,464)"><animateTransform repeatCount="indefinite" type="translate" attributeName="transform" dur="1.8s" begin="0s" calcMode="spline" values="517 464; 517 856; 517 464; 517 856; 517 464" keyTimes="0; 0.222; 0.5; 0.722; 1" keySplines="0.789 0.029 0.585 1; 0.478 0 0.03 1; 0.83 0 0.481 0.967; 0.478 0.038 0.03 0.948" fill="freeze" /><g transform="scale(1,1) translate(-50,-50)"><g id="face"><g transform="translate(67.5,-156.486)"><animateTransform repeatCount="indefinite" type="translate" attributeName="transform" dur="1.8s" begin="0.033s" calcMode="spline" values="67.5 -156.486; 73.5 -99.486; 73.5 -93.486; 84 -164.486; 78 -101.486; 78 -94.486; 67.5 -156.486" keyTimes="0; 0.222; 0.259; 0.5; 0.722; 0.759; 1" keySplines="0.789 0.046 0.585 1; 0.419 0 0.585 1; 0.478 0 0.011 1; 0.83 0 0.481 0.964; 0.419 0.021 0.481 0.945; 0.478 0.036 0.011 0.976" fill="freeze" /><g transform="rotate(0)"><animateTransform repeatCount="indefinite" type="rotate" attributeName="transform" dur="1.8s" begin="0.033s" calcMode="spline" values="0; -9; -21; -9; 0" keyTimes="0; 0.148; 0.5; 0.815; 1" keySplines="0.789 0.029 0.585 1; 0.478 0 0.03 1; 0.83 0 0.481 0.929; 0.478 0.02 0.03 0.973" fill="freeze" /><g transform="scale(1,1) translate(-8.5,268.986)"><g id="Ellipse 1" transform="matrix(1,0,0,1,-36,-294)"><ellipse ry="26" rx="26" cy="0" cx="0" fill="#000000" fill-opacity="1" /></g><g id="Ellipse 2" transform="matrix(1,0,0,1,53,-278.5)"><ellipse ry="26" rx="26" cy="0" cx="0" fill="#000000" fill-opacity="1" /></g><g id="Shape 1"><path fill="#6b002e" fill-opacity="1" d="M-18,-261.875C-31.5,-263.125,-44.442,-241.906,-25.5,-228.25C-14.75,-220.5,-3,-218.5,7.5,-218C18,-217.5,42,-223.75,36.75,-245C27.875,-264,12.312,-252.562,3.062,-253.562C-6.188,-254.562,-3.918,-260.571,-18,-261.875Z" /></g><g id="Shape 2"><path fill="#da1168" fill-opacity="1" d="M-18.625,-224.125C-10.625,-220.375,-3,-218.5,7.5,-218C11.082,-217.829,16.875,-218.5,18.11,-219.492C16.625,-228.375,8.285,-234.318,2.187,-234.938C-9.5,-236.126,-19.25,-226.875,-18.625,-224.125Z" /></g></g></g></g></g></g></g></g><g id="NULL body"><g transform="translate(517,464)"><animateTransform repeatCount="indefinite" type="translate" attributeName="transform" dur="1.8s" begin="0s" calcMode="spline" values="517 464; 517 856; 517 464; 517 856; 517 464" keyTimes="0; 0.222; 0.5; 0.722; 1" keySplines="0.789 0.029 0.585 1; 0.478 0 0.03 1; 0.83 0 0.481 0.967; 0.478 0.038 0.03 0.948" fill="freeze" /><g transform="scale(1,1) translate(-50,-50)"><g transform="matrix(1,0,0,1,73,126)" id="body"><g transform="matrix(1,0,0,1,0,0)" id="r hand"><g id="Shape 1"><path stroke-linejoin="miter" stroke-linecap="round" stroke-width="26" stroke-opacity="1" stroke="#219ebc" d="M155.75,-223.75C155.75,-223.75,168.169,-221.984,211.18,-241.866C245,-257.5,266.75,-279,266.75,-279" /></g><g id="Shape 2"><path fill="#219ebc" fill-opacity="1" d="M270.125,-305C263.25,-305,248.5,-298.625,248.625,-285.375C248.693,-278.16,248.985,-274.317,254.25,-268C257.375,-264.25,270.566,-257.67,280.375,-262.875C292.625,-269.375,291.617,-283.498,289.75,-289.625C285.75,-302.75,275.131,-305,270.125,-305Z" /></g><g id="Shape 3"><path stroke-linejoin="miter" stroke-linecap="round" stroke-width="10" stroke-opacity="1" stroke="#219ebc" d="M258.375,-293.75L249.5,-302" /></g><g id="Shape 4"><path stroke-linejoin="miter" stroke-linecap="round" stroke-width="10" stroke-opacity="1" stroke="#219ebc" d="M267.25,-299L269.375,-314.625" /></g><g id="Shape 5"><path stroke-linejoin="miter" stroke-linecap="round" stroke-width="10" stroke-opacity="1" stroke="#219ebc" d="M275.75,-296L284.875,-307.875" /></g><g id="Shape 6"><path stroke-linejoin="miter" stroke-linecap="round" stroke-width="10" stroke-opacity="1" stroke="#219ebc" d="M282.875,-287.25L296.5,-295.875" /></g><g id="Shape 7"><path stroke-linejoin="miter" stroke-linecap="round" stroke-width="10" stroke-opacity="1" stroke="#219ebc" d="M285,-279L298.875,-280" /></g></g></g></g></g></g><g id="NULL body"><g transform="translate(517,464)"><animateTransform repeatCount="indefinite" type="translate" attributeName="transform" dur="1.8s" begin="0s" calcMode="spline" values="517 464; 517 856; 517 464; 517 856; 517 464" keyTimes="0; 0.222; 0.5; 0.722; 1" keySplines="0.789 0.029 0.585 1; 0.478 0 0.03 1; 0.83 0 0.481 0.967; 0.478 0.038 0.03 0.948" fill="freeze" /><g transform="scale(1,1) translate(-50,-50)"><g transform="matrix(1,0,0,1,73,126)" id="body"><g transform="matrix(-0.951,-0.309,-0.309,0.951,-75.969,-17.904)" id="r hand 2"><g id="Shape 1"><path stroke-linejoin="miter" stroke-linecap="round" stroke-width="26" stroke-opacity="1" stroke="#219ebc" d="M155.75,-223.75C155.75,-223.75,168.169,-221.984,211.18,-241.866C245,-257.5,266.75,-279,266.75,-279" /></g><g id="Shape 2"><path fill="#219ebc" fill-opacity="1" d="M270.125,-305C263.25,-305,248.5,-298.625,248.625,-285.375C248.693,-278.16,248.985,-274.317,254.25,-268C257.375,-264.25,270.566,-257.67,280.375,-262.875C292.625,-269.375,291.617,-283.498,289.75,-289.625C285.75,-302.75,275.131,-305,270.125,-305Z" /></g><g id="Shape 3"><path stroke-linejoin="miter" stroke-linecap="round" stroke-width="10" stroke-opacity="1" stroke="#219ebc" d="M258.375,-293.75L249.5,-302" /></g><g id="Shape 4"><path stroke-linejoin="miter" stroke-linecap="round" stroke-width="10" stroke-opacity="1" stroke="#219ebc" d="M267.25,-299L269.375,-314.625" /></g><g id="Shape 5"><path stroke-linejoin="miter" stroke-linecap="round" stroke-width="10" stroke-opacity="1" stroke="#219ebc" d="M275.75,-296L284.875,-307.875" /></g><g id="Shape 6"><path stroke-linejoin="miter" stroke-linecap="round" stroke-width="10" stroke-opacity="1" stroke="#219ebc" d="M282.875,-287.25L296.5,-295.875" /></g><g id="Shape 7"><path stroke-linejoin="miter" stroke-linecap="round" stroke-width="10" stroke-opacity="1" stroke="#219ebc" d="M285,-279L298.875,-280" /></g></g></g></g></g></g></g></defs><g transform="matrix(1,0,0,1,0,0)" id="main"><animate repeatCount="indefinite" begin="0s" calcMode="discrete" fill="freeze" dur="1.833s" values="visible; hidden" keyTimes="0; 1" attributeName="visibility" /><use clip-path="url(#cp-1080-1080)" height="1080" width="1080" y="0" x="0" xlink:href="#comp_0" href="#comp_0" /></g><g transform="matrix(1,0,0,1,0,0)" visibility="hidden" id="main"><animate repeatCount="indefinite" begin="1.833s" calcMode="discrete" fill="freeze" dur="1.833s" values="visible; hidden" keyTimes="0; 1" attributeName="visibility" /><use clip-path="url(#cp-1080-1080)" height="1080" width="1080" y="0" x="0" xlink:href="#comp_0" href="#comp_0" /></g><g transform="matrix(1,0,0,1,0,0)" visibility="hidden" id="main"><animate repeatCount="indefinite" begin="3.667s" calcMode="discrete" fill="freeze" dur="1.833s" values="visible; visible" keyTimes="0; 1" attributeName="visibility" /><use clip-path="url(#cp-1080-1080)" height="1080" width="1080" y="0" x="0" xlink:href="#comp_0" href="#comp_0" /></g></svg>